<svg id="Layer_1" data-name="Layer 1" xmlns="http://www.w3.org/2000/svg" viewBox="0 0 500 500"><defs><style>.cls-1,.cls-2{fill:#1de6c7;}.cls-1{stroke:#1de6c7;stroke-miterlimit:10;stroke-width:13px;}</style></defs><title>Schedule_icons_02</title><path class="cls-1" d="M250,240.84a7.78,7.78,0,0,1-7.78-7.78V72.21a7.78,7.78,0,0,1,15.55,0V233.07A7.78,7.78,0,0,1,250,240.84Z"/><path class="cls-1" d="M368.53,257.78H266.93a7.78,7.78,0,1,1,0-15.55h101.6a7.78,7.78,0,1,1,0,15.55Z"/><path class="cls-1" d="M233.07,257.78H216.13a7.78,7.78,0,1,1,0-15.55h16.93a7.78,7.78,0,1,1,0,15.55Z"/><path class="cls-1" d="M250,274.71A24.71,24.71,0,1,1,274.71,250,24.74,24.74,0,0,1,250,274.71Zm0-33.87a9.16,9.16,0,1,0,9.16,9.16A9.17,9.17,0,0,0,250,240.84Z"/><path class="cls-1" d="M250,291.64a7.77,7.77,0,0,1-7.78-7.78V266.93a7.78,7.78,0,0,1,15.55,0v16.93A7.77,7.77,0,0,1,250,291.64Z"/><path class="cls-1" d="M250,435.57a7.77,7.77,0,0,1-7.78-7.78v-25.4a7.78,7.78,0,0,1,15.55,0v25.4A7.77,7.77,0,0,1,250,435.57Z"/><path class="cls-1" d="M338.84,412.9A7.77,7.77,0,0,1,332.1,409l-4.23-7.33a7.77,7.77,0,1,1,13.47-7.78l4.23,7.33a7.78,7.78,0,0,1-6.72,11.67Z"/><path class="cls-1" d="M404.42,348.86a7.74,7.74,0,0,1-3.88-1l-7.33-4.23A7.78,7.78,0,0,1,401,330.12l7.33,4.23a7.78,7.78,0,0,1-3.89,14.51Z"/><path class="cls-1" d="M397.8,173.18a7.78,7.78,0,0,1-3.9-14.51l7.33-4.23A7.77,7.77,0,1,1,409,167.9l-7.33,4.23A7.74,7.74,0,0,1,397.8,173.18Z"/><path class="cls-1" d="M336.84,110.69A7.78,7.78,0,0,1,330.11,99l4.23-7.33a7.77,7.77,0,1,1,13.47,7.77l-4.23,7.33A7.77,7.77,0,0,1,336.84,110.69Z"/><path class="cls-1" d="M165.41,110a7.77,7.77,0,0,1-6.74-3.89l-4.23-7.33A7.78,7.78,0,1,1,167.9,91l4.23,7.33A7.78,7.78,0,0,1,165.41,110Z"/><path class="cls-1" d="M102.9,170.93a7.73,7.73,0,0,1-3.88-1l-7.33-4.23a7.77,7.77,0,1,1,7.77-13.47l7.33,4.23a7.78,7.78,0,0,1-3.89,14.51Z"/><path class="cls-1" d="M94.89,346.61A7.78,7.78,0,0,1,91,332.1l7.33-4.23a7.77,7.77,0,1,1,7.78,13.47l-7.33,4.23A7.73,7.73,0,0,1,94.89,346.61Z"/><path class="cls-1" d="M158.91,412.2a7.78,7.78,0,0,1-6.73-11.67l4.23-7.33A7.78,7.78,0,0,1,169.89,401l-4.23,7.33A7.78,7.78,0,0,1,158.91,412.2Z"/><path class="cls-1" d="M427.77,257.78H402.38a7.78,7.78,0,0,1,0-15.55h25.39a7.78,7.78,0,0,1,0,15.55Z"/><path class="cls-1" d="M97.61,257.79H72.22a7.77,7.77,0,0,1,0-15.55H97.61a7.78,7.78,0,0,1,0,15.55Z"/><path class="cls-2" d="M250,18.57C122.39,18.57,18.57,122.39,18.57,250S122.39,481.43,250,481.43,481.43,377.61,481.43,250,377.61,18.57,250,18.57Zm0,450.86C129,469.43,30.57,371,30.57,250S129,30.57,250,30.57,469.43,129,469.43,250,371,469.43,250,469.43Z"/><path class="cls-2" d="M250,30.57C129,30.57,30.57,129,30.57,250S129,469.43,250,469.43,469.43,371,469.43,250,371,30.57,250,30.57Zm0,423.31C137.58,453.88,46.12,362.42,46.12,250S137.58,46.12,250,46.12,453.88,137.58,453.88,250,362.42,453.88,250,453.88Z"/></svg>