<svg id="Layer_1" data-name="Layer 1" xmlns="http://www.w3.org/2000/svg" xmlns:xlink="http://www.w3.org/1999/xlink" viewBox="0 0 1059.46 470.41"><defs><style>.cls-1,.cls-3{fill:#fff;}.cls-1{fill-rule:evenodd;}.cls-2{fill:url(#linear-gradient);}</style><linearGradient id="linear-gradient" x1="-3340.51" y1="175.89" x2="-2783.73" y2="175.89" gradientTransform="translate(3795)" gradientUnits="userSpaceOnUse"><stop offset="0" stop-color="#1de6c7"/><stop offset="1" stop-color="#7488aa"/></linearGradient></defs><title>STEP_2019_conference_logos_RGB</title><path class="cls-1" d="M81.59,368.95C79.25,380,77,390.39,74.93,400.8c-.54,2.78-.93,4.74-1.53,7.7-3.76,18.62-30.3,14.72-25.67-3.82.94-4.08,1.71-7.53,2.53-11,6.17-25.6,12.65-51.12,18.36-76.81,2.81-12.65,4.69-25.66,2-38.65-1.46-7.11-3.74-14-5.8-21a6,6,0,0,1,1.49-6.38c6-6.46,13.1-10.22,22.15-8.81,1.33.21,3.21,1.46,3.57,2.62,6.76,22,18.42,41.45,30.13,60.94,5.54,9.23,11.05,18.48,16.64,27.86,3.32-5.45,4.82-11.93,6-18.48,3-16.56,1.91-33.13-.11-49.69-1.76-14.44-3.44-28.88-5.36-43.29a67.51,67.51,0,0,0-2.9-12.48c-3.72-11.07-13.29-9-22.71-10.26-12.25-1.68-13.67-10.17-2.8-16.32a113.88,113.88,0,0,1,15.41-7.39c3.42-1.29,3.94-3,3.65-6.33-1-10.72-1.92-21.47-2.12-32.23a65,65,0,0,1,2.27-16.51c3.5-14.05,17.51-16.07,26.62-12.67,5.69,2.11,8.31,8,7.37,15.61-.75,6-1.79,12.11-2,18.19-.26,7.35.21,14.72.36,22.24,6.72-1.5,12.59-3.09,18.57-4.07a36.54,36.54,0,0,1,10.85-.2c7.7,1.1,19.83,11,12.12,18.78-5.39,5.42-42.23,6-41.8,15,.53,11,.53,22.07,1.69,33,1.86,17.54,4.11,35.06,7,52.45,1.29,7.71,4.34,15.17,7,22.62a36.87,36.87,0,0,0,4.78,8.43c8.41,12.14,20.33,6.36,23.7-2.23a63.83,63.83,0,0,0,4.35-21.13c.46-16.09-.58-32.22-.23-48.31A87,87,0,0,1,214,215.61c4.4-14.82,15.34-23.33,28.56-23.59,10.28-.2,22.51,3.48,29.7,11,8.16,8.56,10.62,20.95,10.38,32.4a98.89,98.89,0,0,1-2.36,20.64c-3.26,13.48-8,27.57-21.28,34-1.25.62-8.26,3.15-8.25,5,.11,12.55,9.38,18.7,20.23,13.1C284,301.49,291.57,290,294.46,276a191,191,0,0,0,3.15-29c.64-13.35,0-26.79.88-40.12.57-8.64,4.52-17.35,12-22.07,3.44-2.18,8-4.35,11.83-1.67,3,2.1,5.71,9.75,4.24,13.26,1.82-4.37,3.18-7.94,4.78-11.4,6.24-13.41,17.22-20.78,29.5-19.33a41.71,41.71,0,0,1,25,11.71c9.1,9,13.8,20.29,17.08,32.33,5.85,21.46,6.65,42.88-2,63.82-7.06,17.15-18.31,30.25-37.36,34.39-5.77,1.25-11.86,1.43-18.06,1.93.19,0,.34,1.34,1,3.44,3.44,11.66,12.55,50.27,13.6,54.46,2.84,11.33,6.22,22.34,8,34,1.93,12.44-4.69,25.89-19.67,20.08-8.27-3.2-13.16-13.73-14.7-22-5-26.66-10.25-53.25-15.59-79.83-2-9.75-4.35-19.42-7.28-29.23-1.45,3.49-2.55,7.19-4.46,10.41-3.94,6.68-7.52,13.8-12.63,19.49-19,21.13-46.29,19.8-63.77-2.55l-1.78-2.27c-1.81,4-3.29,7.8-5.26,11.37-6,10.82-14.13,18.86-27.12,20.58a32.6,32.6,0,0,1-25.15-7c-1.51-1.18-2.94-2.46-4.67-3.91-2.09,4.3-4,8.4-6,12.38-8.25,15.77-20.17,27.4-37.8,31.93-13.21,3.39-25.55,1.65-35.89-8.19C84.93,371.81,83.53,370.66,81.59,368.95ZM376.18,217.88c-1.51-6.35-3.93-12.46-9.14-16.84-5.83-4.92-11.08-4.52-15.79,1.44a29.55,29.55,0,0,0-4.84,8.8A93.72,93.72,0,0,0,342,250.48a109.46,109.46,0,0,0,4.24,19.69c1.33,4.46,4.28,8,9.54,8.61,5.7.61,9.79-2,12.77-6.54a34.87,34.87,0,0,0,3.23-6.19C376.56,252.63,378.62,231.56,376.18,217.88Zm-280.61,87c-5.32,10.36-7.4,20.45-5.71,31,1.31,8.2,4,15.95,12.83,19.42,3.34,1.3,6.6,1.7,9.5-.76s3.18-5.51,2.48-8.88C111.53,330.73,103,318.44,95.57,304.85Zm150.86-37.38c1.61.16,3.58-1.54,5.22-3.54A28.46,28.46,0,0,0,258,248.27a75.33,75.33,0,0,0-.84-19.67c-.51-2.76-1.73-14.93-6.59-13.76-3.32.8-4.4,6.68-5.15,9.42A68.56,68.56,0,0,0,243.1,241c-.15,7.27-.75,15.64.73,22.78C244.34,266.29,245.3,267.35,246.43,267.47Z"/><polygon class="cls-2" points="1011.27 189.5 454.49 304.58 454.49 162.27 1011.27 47.2 1011.27 189.5"/><path class="cls-3" d="M536.58,227.13l-.06,11.22q-.05,10.25-4.88,16.74t-14.18,8.42q-9.36,1.94-14.13-2.56t-4.71-14.75l.23-43.91q.05-10.25,4.88-16.74t14.18-8.42q9.36-1.94,14.13,2.56t4.71,14.75l0,8.2-12,2.49,0-9q0-4.58-1.76-6.08a5.4,5.4,0,0,0-4.79-.88,8,8,0,0,0-4.8,2.86q-1.8,2.24-1.82,6.83l-.24,45.6q0,4.59,1.76,6a5.51,5.51,0,0,0,4.79.82,8.16,8.16,0,0,0,4.8-2.8q1.8-2.18,1.82-6.77l.06-12.06Z"/><path class="cls-3" d="M546.57,192.41q.05-10.25,5.05-16.77T566,167.18q9.36-1.94,14.3,2.52t4.88,14.71l-.23,43.91q-.05,10.25-5.05,16.77t-14.36,8.46q-9.36,1.94-14.3-2.52t-4.89-14.71ZM559,234.53q0,4.59,1.76,6.08a5.38,5.38,0,0,0,4.79.88,8,8,0,0,0,4.81-2.86q1.8-2.24,1.82-6.83l.24-45.6q0-4.58-1.76-6.08a5.39,5.39,0,0,0-4.79-.88,8,8,0,0,0-4.8,2.86q-1.8,2.24-1.82,6.83Z"/><path class="cls-3" d="M607.8,182.74l-.32,61.16L596,246.27l.44-84.44,15.95-3.3,12.79,47.84.27-50.55,11.32-2.34-.44,84.44-13.06,2.7Z"/><path class="cls-3" d="M661.57,185.83l16.41-3.4-.06,12.06-16.41,3.4-.18,34.86-12.71,2.63.44-84.44,33.63-7L682.61,156l-20.91,4.33Z"/><path class="cls-3" d="M704.44,175l17.45-3.61-.06,12.06-17.45,3.61-.13,24.73,22-4.55-.06,12.06-34.66,7.18.44-84.44,34.66-7.18-.06,12.06-22,4.55Z"/><path class="cls-3" d="M763.69,211.55c-.15-.53-.3-1-.45-1.47a10.82,10.82,0,0,1-.39-1.73,21.6,21.6,0,0,1-.22-2.73q-.05-1.67,0-4.21l.07-13.27q0-5.91-1.92-7.92t-6.34-1.1L750,180l-.18,34.38-12.71,2.63.44-84.44,19.18-4q9.93-2.06,14.36,1.85t4.37,13.68l0,6.63q-.07,13-8.41,18.85a8.66,8.66,0,0,1,6.61,5.32,28.41,28.41,0,0,1,1.73,10.91l-.07,13q0,3.14.2,5.44a15.73,15.73,0,0,0,1.13,4.53ZM750.21,142,750.07,168l5-1a9.78,9.78,0,0,0,5.61-3.09q2-2.35,2.06-7.42l0-8.32q0-4.58-1.53-6.31t-4.9-1Z"/><path class="cls-3" d="M799.65,155.3l17.45-3.61L817,163.75l-17.45,3.61-.13,24.73,22-4.55-.06,12.06-34.66,7.18.44-84.44,34.67-7.18-.06,12.06-22,4.55Z"/><path class="cls-3" d="M844,133.83,843.65,195l-11.44,2.37.44-84.44,15.95-3.3,12.79,47.84.27-50.55L873,104.57,872.54,189l-13.06,2.7Z"/><path class="cls-3" d="M921.81,147.36l-.06,11.22q-.05,10.25-4.88,16.74t-14.18,8.42q-9.36,1.94-14.12-2.56t-4.71-14.75l.23-43.91q.05-10.25,4.88-16.74t14.18-8.42q9.36-1.94,14.13,2.56T922,114.67l0,8.2-12,2.49,0-9q0-4.58-1.76-6.08a5.39,5.39,0,0,0-4.79-.88,8,8,0,0,0-4.8,2.86q-1.8,2.24-1.83,6.83l-.24,45.6q0,4.59,1.76,6a5.51,5.51,0,0,0,4.79.82,8.17,8.17,0,0,0,4.81-2.8q1.8-2.18,1.82-6.77l.06-12.06Z"/><path class="cls-3" d="M945.47,125.11l17.45-3.61-.06,12.06-17.45,3.61-.13,24.73,22-4.55-.06,12.06-34.66,7.18.44-84.44L967.61,85,967.55,97l-22,4.55Z"/></svg>