<svg id="Layer_1" data-name="Layer 1" xmlns="http://www.w3.org/2000/svg" xmlns:xlink="http://www.w3.org/1999/xlink" viewBox="0 0 1059.46 470.41"><defs><style>.cls-1,.cls-3{fill:#fff;}.cls-1{fill-rule:evenodd;}.cls-2{fill:url(#linear-gradient);}</style><linearGradient id="linear-gradient" x1="-3340.51" y1="175.89" x2="-2783.73" y2="175.89" gradientTransform="translate(3795)" gradientUnits="userSpaceOnUse"><stop offset="0" stop-color="#f90"/><stop offset="1" stop-color="#ff6723"/></linearGradient></defs><title>STEP_2019_conference_logos_RGB</title><path class="cls-1" d="M81.59,368.95C79.25,380,77,390.39,74.93,400.8c-.54,2.78-.93,4.74-1.53,7.7-3.76,18.62-30.3,14.72-25.67-3.82.94-4.08,1.71-7.53,2.53-11,6.17-25.6,12.65-51.12,18.36-76.81,2.81-12.65,4.69-25.66,2-38.65-1.46-7.11-3.74-14-5.8-21a6,6,0,0,1,1.49-6.38c6-6.46,13.1-10.22,22.15-8.81,1.33.21,3.21,1.46,3.57,2.62,6.76,22,18.42,41.45,30.13,60.94,5.54,9.23,11.05,18.48,16.64,27.86,3.32-5.45,4.82-11.93,6-18.48,3-16.56,1.91-33.13-.11-49.69-1.76-14.44-3.44-28.88-5.36-43.29a67.51,67.51,0,0,0-2.9-12.48c-3.72-11.07-13.29-9-22.71-10.26-12.25-1.68-13.67-10.17-2.8-16.32a113.88,113.88,0,0,1,15.41-7.39c3.42-1.29,3.94-3,3.65-6.33-1-10.72-1.92-21.47-2.12-32.23a65,65,0,0,1,2.27-16.51c3.5-14.05,17.51-16.07,26.62-12.67,5.69,2.11,8.31,8,7.37,15.61-.75,6-1.79,12.11-2,18.19-.26,7.35.21,14.72.36,22.24,6.72-1.5,12.59-3.09,18.57-4.07a36.54,36.54,0,0,1,10.85-.2c7.7,1.1,19.83,11,12.12,18.78-5.39,5.42-42.23,6-41.8,15,.53,11,.53,22.07,1.69,33,1.86,17.54,4.11,35.06,7,52.45,1.29,7.71,4.34,15.17,7,22.62a36.87,36.87,0,0,0,4.78,8.43c8.41,12.14,20.33,6.36,23.7-2.23a63.83,63.83,0,0,0,4.35-21.13c.46-16.09-.58-32.22-.23-48.31A87,87,0,0,1,214,215.61c4.4-14.82,15.34-23.33,28.56-23.59,10.28-.2,22.51,3.48,29.7,11,8.16,8.56,10.62,20.95,10.38,32.4a98.89,98.89,0,0,1-2.36,20.64c-3.26,13.48-8,27.57-21.28,34-1.25.62-8.26,3.15-8.25,5,.11,12.55,9.38,18.7,20.23,13.1C284,301.49,291.57,290,294.46,276a191,191,0,0,0,3.15-29c.64-13.35,0-26.79.88-40.12.57-8.64,4.52-17.35,12-22.07,3.44-2.18,8-4.35,11.83-1.67,3,2.1,5.71,9.75,4.24,13.26,1.82-4.37,3.18-7.94,4.78-11.4,6.24-13.41,17.22-20.78,29.5-19.33a41.71,41.71,0,0,1,25,11.71c9.1,9,13.8,20.29,17.08,32.33,5.85,21.46,6.65,42.88-2,63.82-7.06,17.15-18.31,30.25-37.36,34.39-5.77,1.25-11.86,1.43-18.06,1.93.19,0,.34,1.34,1,3.44,3.44,11.66,12.55,50.27,13.6,54.46,2.84,11.33,6.22,22.34,8,34,1.93,12.44-4.69,25.89-19.67,20.08-8.27-3.2-13.16-13.73-14.7-22-5-26.66-10.25-53.25-15.59-79.83-2-9.75-4.35-19.42-7.28-29.23-1.45,3.49-2.55,7.19-4.46,10.41-3.94,6.68-7.52,13.8-12.63,19.49-19,21.13-46.29,19.8-63.77-2.55l-1.78-2.27c-1.81,4-3.29,7.8-5.26,11.37-6,10.82-14.13,18.86-27.12,20.58a32.6,32.6,0,0,1-25.15-7c-1.51-1.18-2.94-2.46-4.67-3.91-2.09,4.3-4,8.4-6,12.38-8.25,15.77-20.17,27.4-37.8,31.93-13.21,3.39-25.55,1.65-35.89-8.19C84.93,371.81,83.53,370.66,81.59,368.95ZM376.18,217.88c-1.51-6.35-3.93-12.46-9.14-16.84-5.83-4.92-11.08-4.52-15.79,1.44a29.55,29.55,0,0,0-4.84,8.8A93.72,93.72,0,0,0,342,250.48a109.46,109.46,0,0,0,4.24,19.69c1.33,4.46,4.28,8,9.54,8.61,5.7.61,9.79-2,12.77-6.54a34.87,34.87,0,0,0,3.23-6.19C376.56,252.63,378.62,231.56,376.18,217.88Zm-280.61,87c-5.32,10.36-7.4,20.45-5.71,31,1.31,8.2,4,15.95,12.83,19.42,3.34,1.3,6.6,1.7,9.5-.76s3.18-5.51,2.48-8.88C111.53,330.73,103,318.44,95.57,304.85Zm150.86-37.38c1.61.16,3.58-1.54,5.22-3.54A28.46,28.46,0,0,0,258,248.27a75.33,75.33,0,0,0-.84-19.67c-.51-2.76-1.73-14.93-6.59-13.76-3.32.8-4.4,6.68-5.15,9.42A68.56,68.56,0,0,0,243.1,241c-.15,7.27-.75,15.64.73,22.78C244.34,266.29,245.3,267.35,246.43,267.47Z"/><polygon class="cls-2" points="1011.27 189.5 454.49 304.58 454.49 162.27 1011.27 47.2 1011.27 189.5"/><path class="cls-3" d="M598.85,161.34,619,157.17q9.59-2,14.24,2.35t4.6,14.59l-.22,42.71q-.05,10.25-4.76,16.53t-14.3,8.26l-20.11,4.16Zm12.65,9.43-.32,60.32,7.16-1.48a7.93,7.93,0,0,0,4.75-2.79q1.74-2.17,1.77-6.75l.23-43.91q0-4.58-1.7-6a5.33,5.33,0,0,0-4.73-.83Z"/><path class="cls-3" d="M649.11,150.93l12.71-2.63-.44,84.44-12.71,2.63Z"/><path class="cls-3" d="M693.05,179.19l17.79-3.69-.14,26.78q-.05,10.25-4.88,16.74t-14.18,8.42q-9.36,1.94-14.13-2.56t-4.71-14.75l.23-43.91q.05-10.25,4.88-16.74t14.18-8.42q9.36-1.94,14.13,2.56t4.71,14.75l0,8.2-12,2.49,0-9q0-4.58-1.76-6.08a5.39,5.39,0,0,0-4.79-.88,8,8,0,0,0-4.8,2.86q-1.8,2.24-1.82,6.83l-.24,45.6q0,4.59,1.76,6a5.51,5.51,0,0,0,4.79.82,8.16,8.16,0,0,0,4.81-2.8q1.8-2.18,1.82-6.76l.08-15.56-5.78,1.2Z"/><path class="cls-3" d="M722.37,135.76l12.71-2.63-.44,84.44-12.71,2.63Z"/><path class="cls-3" d="M743.74,131.33,783,123.2,783,135.26,769.68,138l-.38,72.38L756.59,213l.38-72.38-13.29,2.75Z"/><path class="cls-3" d="M828,198.24l-12.83,2.66L813.05,186l-15.6,3.23L795.18,205l-11.67,2.42,13.38-87.12,18.6-3.85Zm-28.86-20.77,12.25-2.54-5.9-41.44Z"/><path class="cls-3" d="M837.45,111.93l12.71-2.63-.38,72.38,20.91-4.33-.06,12.06-33.62,7Z"/></svg>