<svg width="1001" height="117" viewBox="0 0 1001 117" fill="none" xmlns="http://www.w3.org/2000/svg">
<path d="M4.62287 91.0249C8.39335 93.0326 12.9386 94.7392 18.2586 96.1445C23.5786 97.55 29.1569 98.2527 34.9933 98.2527C41.3463 98.2527 45.8141 97.3241 48.3966 95.467C50.9791 93.5596 52.2704 90.5982 52.2704 86.5828C52.2704 83.8724 51.6248 81.5887 50.3335 79.7315C49.0422 77.8242 46.8471 75.9168 43.7481 74.0095C40.7007 72.1021 35.923 69.5926 29.4151 66.4805C20.7378 62.3146 13.6876 57.4458 8.26423 51.8744C2.84094 46.303 0.129288 39.3011 0.129288 30.8686C0.129288 23.6408 1.93705 17.7432 5.55258 13.1756C9.21976 8.5579 14.1265 5.22007 20.273 3.16216C26.471 1.05405 33.4696 0 41.2689 0C47.9834 0 54.0781 0.702698 59.5531 2.1081C65.0797 3.5135 69.1342 5.01929 71.7168 6.62547L67.6881 25.2219C64.1758 23.0636 60.3278 21.3069 56.1442 19.9517C52.0122 18.5965 47.2861 17.9189 41.9661 17.9189C35.7165 17.9189 31.197 18.9479 28.4079 21.0057C25.6704 23.0135 24.3017 25.8996 24.3017 29.6641C24.3017 32.3243 24.9732 34.608 26.3161 36.5154C27.7106 38.4227 29.7508 40.2547 32.4367 42.0115C35.1225 43.718 39.2028 45.9768 44.6778 48.7875C52.1154 52.6022 58.0294 56.0404 62.4197 59.1022C66.8617 62.1138 70.3997 65.7277 73.0338 69.9438C75.7196 74.1601 77.0626 79.2045 77.0626 85.0771C77.0626 91.8029 75.384 97.5751 72.0267 102.393C68.6694 107.162 63.9175 110.801 57.7712 113.31C51.6764 115.77 44.6003 117 36.5429 117C31.7393 117 26.8842 116.623 21.9775 115.87C17.1223 115.167 12.8095 114.29 9.03899 113.235C5.32016 112.181 2.68598 111.177 1.13647 110.223L4.62287 91.0249ZM208.607 91.552H165.298L157.473 115.795H130.976L174.518 0H199.465L243.393 115.795H216.51L208.607 91.552ZM202.951 74.3107L190.167 35.0096L186.836 23.1891L183.427 35.0096L170.798 74.3107H202.951ZM377.572 1.20463V19.5752H331.009V49.6157H365.254V68.0616H331.009V115.795H306.062V1.20463H377.572ZM468.674 1.20463V48.7875H514.617V1.20463H538.945V115.795H514.617V66.7817H468.674V115.795H444.036V1.20463H468.674ZM855.181 115.795H827.755C827.239 115.092 826.722 114.264 826.206 113.31C825.689 112.307 825.12 111.127 824.501 109.772L823.417 107.513C822.538 105.706 821.712 103.824 820.937 101.866C820.214 99.8589 819.284 97.1986 818.148 93.8859C816.547 89.1176 815.126 85.3029 813.887 82.4419C812.699 79.5307 811.201 77.0964 809.394 75.1389C807.585 73.1813 805.442 72.2026 802.962 72.2026C797.695 72.4033 792.503 72.5037 787.39 72.5037V115.795H762.753V1.20463H774.141C776.776 1.20463 779.798 1.05405 783.206 0.752899C786.047 0.552123 789.352 0.376452 793.123 0.225867C796.894 0.0752895 801 0 805.442 0C817.993 0 828.194 2.66022 836.045 7.98068C843.947 13.2509 847.899 22.1351 847.899 34.6331C847.899 43.6177 846.22 50.7953 842.863 56.1659C839.557 61.5366 834.701 65.4516 828.298 67.9111C831.035 70.1697 833.411 73.1311 835.425 76.7952C837.491 80.4593 839.918 85.4535 842.707 91.7778C845.704 98.8053 848.234 104.05 850.3 107.513L855.181 115.795ZM787.39 55.2624C789.973 55.5636 795.37 55.7141 803.583 55.7141C810.555 55.7141 815.695 53.7818 819 49.9169C822.306 46.0521 823.959 41.1833 823.959 35.3108C823.959 31.8976 823.39 28.9362 822.254 26.4266C821.17 23.8667 819.052 21.8088 815.901 20.2529C812.75 18.6467 808.283 17.8436 802.498 17.8436C796.351 17.8436 791.315 18.2953 787.39 19.1988V55.2624ZM995.093 1.20463V19.5752H947.833V48.0346H984.091V66.1794H947.833V96.8975H1000.13V115.795H923.196V1.20463H995.093Z" fill="#595959"/>
<path d="M610.695 13.4721C614.139 13.4721 616.931 10.6801 616.931 7.23604C616.931 3.79197 614.139 1 610.695 1C607.251 1 604.459 3.79197 604.459 7.23604C604.459 10.6801 607.251 13.4721 610.695 13.4721Z" fill="#2800A0"/>
<path d="M624.726 13.4721C628.171 13.4721 630.962 10.6801 630.962 7.23604C630.962 3.79197 628.171 1 624.726 1C621.282 1 618.49 3.79197 618.49 7.23604C618.49 10.6801 621.282 13.4721 624.726 13.4721Z" fill="#2800A0"/>
<path d="M691.764 13.4721C695.208 13.4721 698 10.6801 698 7.23604C698 3.79197 695.208 1 691.764 1C688.32 1 685.528 3.79197 685.528 7.23604C685.528 10.6801 688.32 13.4721 691.764 13.4721Z" fill="#2800A0"/>
<path d="M677.733 13.4721C681.177 13.4721 683.969 10.6801 683.969 7.23604C683.969 3.79197 681.177 1 677.733 1C674.289 1 671.497 3.79197 671.497 7.23604C671.497 10.6801 674.289 13.4721 677.733 13.4721Z" fill="#2800A0"/>
<path d="M618.49 29.062C621.934 29.062 624.726 26.2701 624.726 22.826C624.726 19.3819 621.934 16.59 618.49 16.59C615.046 16.59 612.254 19.3819 612.254 22.826C612.254 26.2701 615.046 29.062 618.49 29.062Z" fill="#2800A0"/>
<path d="M634.08 29.062C637.524 29.062 640.316 26.2701 640.316 22.826C640.316 19.3819 637.524 16.59 634.08 16.59C630.636 16.59 627.844 19.3819 627.844 22.826C627.844 26.2701 630.636 29.062 634.08 29.062Z" fill="#2800A0"/>
<path d="M683.969 29.062C687.413 29.062 690.205 26.2701 690.205 22.826C690.205 19.3819 687.413 16.59 683.969 16.59C680.525 16.59 677.733 19.3819 677.733 22.826C677.733 26.2701 680.525 29.062 683.969 29.062Z" fill="#2800A0"/>
<path d="M668.379 29.062C671.823 29.062 674.615 26.2701 674.615 22.826C674.615 19.3819 671.823 16.59 668.379 16.59C664.935 16.59 662.143 19.3819 662.143 22.826C662.143 26.2701 664.935 29.062 668.379 29.062Z" fill="#2800A0"/>
<path d="M627.844 43.0937C631.288 43.0937 634.08 40.3017 634.08 36.8576C634.08 33.4136 631.288 30.6216 627.844 30.6216C624.4 30.6216 621.608 33.4136 621.608 36.8576C621.608 40.3017 624.4 43.0937 627.844 43.0937Z" fill="#2800A0"/>
<path d="M643.435 43.0937C646.879 43.0937 649.671 40.3017 649.671 36.8576C649.671 33.4136 646.879 30.6216 643.435 30.6216C639.99 30.6216 637.198 33.4136 637.198 36.8576C637.198 40.3017 639.99 43.0937 643.435 43.0937Z" fill="#2800A0"/>
<path d="M674.615 43.0937C678.059 43.0937 680.851 40.3017 680.851 36.8576C680.851 33.4136 678.059 30.6216 674.615 30.6216C671.171 30.6216 668.379 33.4136 668.379 36.8576C668.379 40.3017 671.171 43.0937 674.615 43.0937Z" fill="#2800A0"/>
<path d="M660.584 43.0937C664.028 43.0937 666.82 40.3017 666.82 36.8576C666.82 33.4136 664.028 30.6216 660.584 30.6216C657.14 30.6216 654.348 33.4136 654.348 36.8576C654.348 40.3017 657.14 43.0937 660.584 43.0937Z" fill="#2800A0"/>
<path d="M637.199 58.6837C640.643 58.6837 643.435 55.8918 643.435 52.4477C643.435 49.0036 640.643 46.2117 637.199 46.2117C633.755 46.2117 630.963 49.0036 630.963 52.4477C630.963 55.8918 633.755 58.6837 637.199 58.6837Z" fill="#2800A0"/>
<path d="M665.261 58.6837C668.705 58.6837 671.497 55.8918 671.497 52.4477C671.497 49.0036 668.705 46.2117 665.261 46.2117C661.816 46.2117 659.025 49.0036 659.025 52.4477C659.025 55.8918 661.816 58.6837 665.261 58.6837Z" fill="#2800A0"/>
<path d="M651.23 58.6837C654.674 58.6837 657.466 55.8918 657.466 52.4477C657.466 49.0036 654.674 46.2117 651.23 46.2117C647.786 46.2117 644.994 49.0036 644.994 52.4477C644.994 55.8918 647.786 58.6837 651.23 58.6837Z" fill="#2800A0"/>
<path d="M643.435 72.7152C646.879 72.7152 649.671 69.9233 649.671 66.4792C649.671 63.0351 646.879 60.2432 643.435 60.2432C639.99 60.2432 637.198 63.0351 637.198 66.4792C637.198 69.9233 639.99 72.7152 643.435 72.7152Z" fill="#2800A0"/>
<path d="M659.025 72.7152C662.469 72.7152 665.261 69.9233 665.261 66.4792C665.261 63.0351 662.469 60.2432 659.025 60.2432C655.581 60.2432 652.789 63.0351 652.789 66.4792C652.789 69.9233 655.581 72.7152 659.025 72.7152Z" fill="#2800A0"/>
<path d="M643.435 86.7448C646.879 86.7448 649.671 83.9528 649.671 80.5087C649.671 77.0647 646.879 74.2727 643.435 74.2727C639.99 74.2727 637.198 77.0647 637.198 80.5087C637.198 83.9528 639.99 86.7448 643.435 86.7448Z" fill="#2800A0"/>
<path d="M659.025 86.7448C662.469 86.7448 665.261 83.9528 665.261 80.5087C665.261 77.0647 662.469 74.2727 659.025 74.2727C655.581 74.2727 652.789 77.0647 652.789 80.5087C652.789 83.9528 655.581 86.7448 659.025 86.7448Z" fill="#2800A0"/>
<path d="M643.435 102.335C646.879 102.335 649.671 99.543 649.671 96.099C649.671 92.6549 646.879 89.8629 643.435 89.8629C639.99 89.8629 637.198 92.6549 637.198 96.099C637.198 99.543 639.99 102.335 643.435 102.335Z" fill="#2800A0"/>
<path d="M659.025 102.335C662.469 102.335 665.261 99.543 665.261 96.099C665.261 92.6549 662.469 89.8629 659.025 89.8629C655.581 89.8629 652.789 92.6549 652.789 96.099C652.789 99.543 655.581 102.335 659.025 102.335Z" fill="#2800A0"/>
<path d="M643.435 116.366C646.879 116.366 649.671 113.574 649.671 110.13C649.671 106.686 646.879 103.894 643.435 103.894C639.99 103.894 637.198 106.686 637.198 110.13C637.198 113.574 639.99 116.366 643.435 116.366Z" fill="#2800A0"/>
<path d="M659.025 116.366C662.469 116.366 665.261 113.574 665.261 110.13C665.261 106.686 662.469 103.894 659.025 103.894C655.581 103.894 652.789 106.686 652.789 110.13C652.789 113.574 655.581 116.366 659.025 116.366Z" fill="#2800A0"/>
</svg>
