<svg xmlns="http://www.w3.org/2000/svg" id="SvgjsSvg751465" width="4096" height="1370.9813691200416" version="1.1" xmlns:xlink="http://www.w3.org/1999/xlink" xmlns:svgjs="http://svgjs.com/svgjs"><defs id="SvgjsDefs751466"></defs><g id="SvgjsG751467" transform="translate(328, 327.99999999999994) scale(34.4)" opacity="1"><defs id="SvgjsDefs148783"><linearGradient id="SvgjsLinearGradient_S9O_uYpPV" gradientUnits="userSpaceOnUse" x1="12.558482059376406" y1="87.44158060315634" x2="87.44154472190912" y2="12.558517940623602"><stop id="SvgjsStop148786" stop-color="#e85640" offset="0.05"></stop><stop id="SvgjsStop148787" stop-color="#972312" offset="0.95"></stop></linearGradient></defs><g id="SvgjsG148784" transform="scale(0.22696286561537396)" opacity="1"><g id="SvgjsG148788" class="MnTC3Jd5n" transform="translate(-20.469239494125258, -5.0875477193729814) scale(1.0175095438745962)" light-content="false" fill="url(#SvgjsLinearGradient_S9O_uYpPV)"><path d="M49.174 5c-6.165 0-11.162 3.635-11.162 6.51 0 1.66.576 3.137 2.876 4.09.757-.9 3.705-4.016 8.286-4.015 4.583 0 7.53 3.12 8.284 4.016 2.3-.953 2.877-2.43 2.877-4.09C60.335 8.635 55.338 5 49.174 5zm0 9.029c-3.994 0-6.562 3.321-6.562 3.321a4.976 4.976 0 0 0-.717 2.53c0 3.252 3.258 5.887 7.279 5.887 4.02 0 7.279-2.635 7.279-5.886a4.979 4.979 0 0 0-.722-2.533s-2.563-3.319-6.557-3.319zm0 13.537c-16.048 0-29.057 5.786-29.057 12.922 0 4.214 4.55 5.905 11.569 6.589 10.296.664 14.426-3.778 22.399-7.878 0 0-2.373-.652-8.286-.652-5.913 0-8.285.652-8.285.652s3.68-2.445 12.318-2.445 12.317 2.44 12.317 2.44c-2.186.19-4.341.9-6.375 1.868-1.47.699-2.888 1.534-4.304 2.414 4.578 2.907 10.879 3.837 15.192 3.6 7.019-.683 11.568-2.374 11.568-6.588 0-7.136-13.009-12.922-29.056-12.922zm-.238 17.55c-5.478 2.925-11.094 5.09-17.226 4.42.352 2.073.95 4.105 1.78 6.036 1.602 3.726 4.046 7.023 7.037 9.755 2.88.455 7.138.503 12.955-1.056 6.01-1.61 9.726-3.874 11.973-5.746a11.966 11.966 0 0 1-.8-2.92c-.188-1.38-.102-2.805.324-4.132a7.86 7.86 0 0 1 .93-1.936c-6.322.573-11.969-.933-16.973-4.42zm19.06 17.64c-2.816 2.202-7.059 4.579-13.249 6.237-2.561.687-4.893 1.097-7 1.31a32.93 32.93 0 0 0 5.494 2.19c3.08.917 6.288 1.41 9.29 2.555 1.501.573 2.95 1.312 4.214 2.304 1.264.991 2.341 2.245 3.01 3.706a8.65 8.65 0 0 1 .31 6.35 8.65 8.65 0 0 1-4.156 4.808 8.649 8.649 0 0 1-6.327.613 8.352 8.352 0 0 1-1.476-.593c-.195-.094-.313.024-.103.17a13.864 13.864 0 0 0 4.738 2.2c3.295.812 6.886.357 9.875-1.252a13.985 13.985 0 0 0 6.48-7.555 13.987 13.987 0 0 0-.266-9.95c-1.07-2.572-2.891-4.76-4.828-6.764-1.937-2.003-4.022-3.872-5.778-6.036-.078-.096-.151-.196-.228-.294z" color="#000" overflow="visible" style="isolation: auto; mix-blend-mode: normal; solid-color: #000; solid-opacity: 1; marker: none"></path></g><g id="SvgjsG148789" class="text" transform="translate(125.83746358692272, 72.45232599600158) scale(1)" light-content="false" fill="#972312"><path d="M-52.94 0L-42.93 0L-42.93 -23.68L-22.43 -23.68L-22.43 0L-12.35 0L-12.35 -54.46L-22.43 -54.46L-22.43 -32.27L-42.93 -32.27L-42.93 -54.46L-52.94 -54.46Z M-5.85 -54.46L6.33 0L17.76 0L23.24 -27.54C23.33 -27.99 23.71 -30.07 24.39 -33.79C25.07 -37.51 25.54 -40.34 25.81 -42.28L26.15 -42.28C26.33 -41.16 27.21 -36.24 28.79 -27.54L34.2 0L45.63 0L57.81 -54.46L47.19 -54.46L42.39 -26.52C42.16 -25.03 41.73 -22.4 41.1 -18.64C40.47 -14.87 40.04 -12.27 39.81 -10.82L39.48 -10.82C39.34 -11.55 38.92 -13.94 38.22 -18C37.53 -22.06 37.02 -24.9 36.7 -26.52L30.95 -54.46L20.94 -54.46L15.32 -26.52C15.01 -24.81 14.06 -19.57 12.48 -10.82L12.14 -10.82C11.96 -12.09 11.73 -13.63 11.43 -15.46C11.14 -17.29 10.81 -19.34 10.45 -21.62C10.09 -23.89 9.82 -25.53 9.64 -26.52L4.7 -54.46Z"></path></g><g id="SvgjsG148790" class="text" transform="translate(315.7792260228771, 72.62677083333332) scale(1)" light-content="false" fill="#474747"><path d="M-123.47 0L-113.46 0L-113.46 -22.8C-113.46 -27.58 -113.84 -33.26 -114.61 -39.85L-114.27 -39.85L-109.87 -26.86L-101.35 -2.84L-94.11 -2.84L-85.45 -26.86L-81.18 -39.78L-80.85 -39.78C-81.57 -32.74 -81.93 -27.08 -81.93 -22.8L-81.93 0L-71.98 0L-71.98 -54.46L-84.3 -54.46L-92.89 -30.31C-93.61 -28.28 -94.5 -25.66 -95.56 -22.46C-96.62 -19.26 -97.31 -17.21 -97.62 -16.3L-97.9 -16.3C-98.26 -17.43 -98.96 -19.6 -99.99 -22.8C-101.03 -26 -101.86 -28.5 -102.5 -30.31L-111.22 -54.46L-123.47 -54.46Z M-60.96 -20.57C-60.96 -13.26 -59.2 -7.8 -55.68 -4.19C-52.16 -0.59 -47.13 1.22 -40.59 1.22C-33.78 1.22 -28.67 -0.65 -25.27 -4.4C-21.86 -8.14 -20.16 -13.53 -20.16 -20.57L-20.16 -54.46L-30.31 -54.46L-30.31 -20.5C-30.31 -11.75 -33.74 -7.37 -40.59 -7.37C-47.4 -7.37 -50.81 -11.75 -50.81 -20.5L-50.81 -54.46L-60.96 -54.46Z M-12.25 -27.26C-12.25 -18.38 -9.95 -11.41 -5.34 -6.36C-0.74 -1.31 5.1 1.22 12.18 1.22C15.11 1.22 17.8 0.76 20.26 -0.17C22.72 -1.09 24.78 -2.33 26.45 -3.89C28.12 -5.45 29.5 -7.01 30.58 -8.59C31.66 -10.17 32.54 -11.82 33.22 -13.53L24.08 -16.3C23.14 -13.82 21.58 -11.72 19.42 -9.98C17.25 -8.24 14.79 -7.37 12.04 -7.37C7.85 -7.37 4.49 -9.17 1.96 -12.75C-0.56 -16.34 -1.83 -21.18 -1.83 -27.26C-1.83 -33.26 -0.58 -38.06 1.93 -41.64C4.43 -45.23 7.8 -47.02 12.04 -47.02C16.55 -47.02 20.27 -44.45 23.21 -39.31L31.87 -42.15C30.24 -46.03 27.74 -49.25 24.36 -51.82C20.97 -54.39 16.91 -55.68 12.18 -55.68C4.96 -55.68 -0.91 -53.12 -5.45 -48C-9.98 -42.88 -12.25 -35.97 -12.25 -27.26Z M40.19 0L50.2 0L50.2 -23.68L70.7 -23.68L70.7 0L80.78 0L80.78 -54.46L70.7 -54.46L70.7 -32.27L50.2 -32.27L50.2 -54.46L40.19 -54.46Z M90.72 -42.35L99.65 -39.44C101.64 -44.81 104.53 -47.49 108.31 -47.49C110.16 -47.49 111.64 -46.88 112.75 -45.67C113.85 -44.45 114.4 -42.85 114.4 -40.86C114.4 -39.24 114 -37.74 113.19 -36.36C112.37 -34.99 111.38 -33.76 110.21 -32.68C109.04 -31.59 107.86 -30.46 106.69 -29.26C105.52 -28.07 104.53 -26.55 103.71 -24.73C102.9 -22.9 102.5 -20.88 102.5 -18.67L102.5 -15.43L112.64 -15.43L112.64 -17.93C112.64 -19.78 113.06 -21.45 113.9 -22.93C114.73 -24.42 115.74 -25.72 116.94 -26.82C118.14 -27.93 119.33 -29.06 120.53 -30.21C121.72 -31.36 122.74 -32.8 123.57 -34.54C124.4 -36.27 124.82 -38.22 124.82 -40.39C124.82 -45.08 123.28 -48.86 120.19 -51.72C117.1 -54.59 113.1 -56.02 108.18 -56.02C103.62 -56.02 99.82 -54.7 96.78 -52.06C93.73 -49.42 91.72 -46.19 90.72 -42.35ZM101.35 0.2L113.73 0.2L113.73 -10.89L101.35 -10.89Z"></path></g></g></g></svg>