<svg id="Layer_1" data-name="Layer 1" xmlns="http://www.w3.org/2000/svg" viewBox="0 0 500 500"><defs><style>.cls-1{fill:#1de6c7;stroke:#1de6c7;stroke-miterlimit:10;stroke-width:13px;}</style></defs><title>Schedule_icons_02</title><path class="cls-1" d="M250,432.24h0a7.77,7.77,0,0,1-6.51-3.53L134.06,260.82c-1.2-1.79-30.51-46.18-30.51-91.81,0-80.75,65.7-146.45,146.45-146.45S396.45,88.26,396.45,169c0,45.62-29.56,90.52-30.82,92.41L256.51,428.71A7.77,7.77,0,0,1,250,432.24Zm0-394.12c-72.18,0-130.9,58.72-130.9,130.9,0,40.84,27.66,82.83,27.94,83.25l103,158L352.64,252.86c.32-.48,28.25-43,28.25-83.85C380.9,96.84,322.18,38.12,250,38.12Z"/><path class="cls-1" d="M250,477.43c-10.51,0-102.66-.83-102.66-29.67,0-13.35,19.38-22.47,57.59-27.11a7.78,7.78,0,0,1,1.87,15.44c-28.29,3.43-40,9-43.24,11.71,6.23,5.52,37.41,14.08,86.43,14.08s80.19-8.56,86.43-14.08c-3.26-2.7-15-8.31-43.54-11.75a7.78,7.78,0,1,1,1.86-15.44c38.42,4.63,57.91,13.77,57.91,27.15C352.66,476.6,260.51,477.43,250,477.43Zm87.31-28.7h0Z"/><path class="cls-1" d="M250,242.48A73.46,73.46,0,1,1,323.46,169,73.55,73.55,0,0,1,250,242.48Zm0-131.37A57.91,57.91,0,1,0,307.91,169,58,58,0,0,0,250,111.1Z"/></svg>